<svg width="64" height="64" viewBox="0 0 64 64" fill="none" xmlns="http://www.w3.org/2000/svg">
<rect x="1" y="1" width="62" height="62" rx="31" fill="#F6F3ED"/>
<rect x="1" y="1" width="62" height="62" rx="31" stroke="black" stroke-width="2"/>
<path fill-rule="evenodd" clip-rule="evenodd" d="M40.0897 22.9588C40.0897 27.3543 36.4678 30.9176 32 30.9176C27.5322 30.9176 23.9103 27.3543 23.9103 22.9588C23.9103 18.5633 27.5322 15 32 15C36.4678 15 40.0897 18.5633 40.0897 22.9588ZM37.3931 22.9588C37.3931 25.8891 34.9785 28.2646 32 28.2646C29.0215 28.2646 26.6069 25.8891 26.6069 22.9588C26.6069 20.0284 29.0215 17.6529 32 17.6529C34.9785 17.6529 37.3931 20.0284 37.3931 22.9588Z" fill="black"/>
<path d="M32 34.8969C23.2707 34.8969 15.8332 39.9752 13 47.0899C13.6902 47.7641 14.4172 48.4019 15.1779 49C17.2876 42.468 23.9059 37.5499 32 37.5499C40.0941 37.5499 46.7124 42.468 48.8221 49C49.5828 48.4019 50.3098 47.7641 51 47.0899C48.1668 39.9752 40.7293 34.8969 32 34.8969Z" fill="black"/>
</svg>
