<svg width="32" height="32" viewBox="0 0 32 32" fill="none" xmlns="http://www.w3.org/2000/svg">
<path fill-rule="evenodd" clip-rule="evenodd" d="M6.16146 5C5.63433 4.99998 5.17954 4.99997 4.80497 5.03057C4.40963 5.06287 4.01641 5.13419 3.63803 5.32698C3.07354 5.6146 2.6146 6.07354 2.32698 6.63803C2.13419 7.01641 2.06287 7.40963 2.03057 7.80497C1.99997 8.17954 1.99998 8.63429 2 9.16142V17.2771C2 17.8293 2.44772 18.2771 3 18.2771C3.55229 18.2771 4 17.8293 4 17.2771V14H28V22.8C28 23.3766 27.9992 23.7488 27.9761 24.0322C27.9539 24.3038 27.9162 24.4045 27.891 24.454C27.7951 24.6422 27.6422 24.7951 27.454 24.891C27.4045 24.9162 27.3038 24.9539 27.0322 24.9761C26.7488 24.9992 26.3766 25 25.8 25H14.5556C14.0033 25 13.5556 25.4477 13.5556 26C13.5556 26.5523 14.0033 27 14.5556 27H25.8386C26.3657 27 26.8205 27 27.195 26.9694C27.5904 26.9371 27.9836 26.8658 28.362 26.673C28.9265 26.3854 29.3854 25.9265 29.673 25.362C29.8658 24.9836 29.9371 24.5904 29.9694 24.195C30 23.8205 30 23.3657 30 22.8386V9.16144C30 8.6343 30 8.17954 29.9694 7.80497C29.9371 7.40963 29.8658 7.01641 29.673 6.63803C29.3854 6.07354 28.9265 5.6146 28.362 5.32698C27.9836 5.13419 27.5904 5.06287 27.195 5.03057C26.8205 4.99997 26.3657 4.99998 25.8386 5H6.16146ZM28 12V9.2C28 8.62345 27.9992 8.25118 27.9761 7.96784C27.9539 7.69618 27.9162 7.59546 27.891 7.54601C27.7951 7.35785 27.6422 7.20487 27.454 7.109C27.4045 7.0838 27.3038 7.04613 27.0322 7.02393C26.7488 7.00078 26.3766 7 25.8 7H6.2C5.62345 7 5.25118 7.00078 4.96784 7.02393C4.69618 7.04613 4.59546 7.0838 4.54601 7.109C4.35785 7.20487 4.20487 7.35785 4.109 7.54601C4.0838 7.59546 4.04613 7.69618 4.02393 7.96784C4.00078 8.25118 4 8.62345 4 9.2V12H28Z" fill="#242729"/>
<path fill-rule="evenodd" clip-rule="evenodd" d="M11 24.5007V26.5C11 27.8807 9.88072 29 8.5 29H4.5C3.11929 29 2 27.8807 2 26.5V24.5001C2 23.3692 2.75089 22.4137 3.78125 22.1049V21.683C3.78125 20.1078 5.11668 19.0313 6.5 19.0313C7.88333 19.0313 9.21875 20.1078 9.21875 21.683V22.1056C10.2491 22.4143 11 23.3698 11 24.5007ZM7.21875 22.0005V21.683C7.21875 21.3516 6.92335 21.0313 6.5 21.0313C6.07666 21.0313 5.78125 21.3516 5.78125 21.683V22.0003L7.21875 22.0005ZM9 26.5V24.5007C9 24.2246 8.77619 24.0007 8.50008 24.0007L4.50008 24.0001C4.22391 24 4 24.2239 4 24.5001V26.5C4 26.7761 4.22386 27 4.5 27H8.5C8.77615 27 9 26.7761 9 26.5Z" fill="#242729"/>
</svg>
