<svg width="71" height="75" viewBox="0 0 71 75" fill="none" xmlns="http://www.w3.org/2000/svg">
<path d="M40 1C40 0.447715 39.5523 0 39 0C38.4477 0 38 0.447715 38 1H39H40ZM39 1H38V5H39H40V1H39Z" fill="#222222"/>
<path d="M40 74C40 74.5523 39.5523 75 39 75C38.4477 75 38 74.5523 38 74H39H40ZM39 74H38V52H39H40V74H39Z" fill="#222222"/>
<path d="M39 23V33" stroke="#222222" stroke-width="2"/>
<path d="M58 34.6C58 34.0399 58 33.7599 57.891 33.546C57.7951 33.3578 57.6422 33.2049 57.454 33.109C57.2401 33 56.9601 33 56.4 33H10.3213C10.0796 33 9.95876 33 9.84489 33.027C9.74392 33.051 9.6473 33.0905 9.55849 33.1442C9.45834 33.2047 9.37215 33.2894 9.19978 33.4588L1.16118 41.3588C0.755421 41.7576 0.55254 41.957 0.476696 42.1877C0.409996 42.3906 0.409996 42.6094 0.476696 42.8123C0.55254 43.043 0.755421 43.2424 1.16118 43.6412L9.19978 51.5412C9.37215 51.7106 9.45834 51.7953 9.55849 51.8558C9.6473 51.9095 9.74392 51.949 9.84489 51.973C9.95876 52 10.0796 52 10.3213 52H56.4C56.9601 52 57.2401 52 57.454 51.891C57.6422 51.7951 57.7951 51.6422 57.891 51.454C58 51.2401 58 50.9601 58 50.4V34.6Z" fill="#222222"/>
<path d="M13 6.6C13 6.03995 13 5.75992 13.109 5.54601C13.2049 5.35785 13.3578 5.20487 13.546 5.10899C13.7599 5 14.0399 5 14.6 5H60.7038C60.9365 5 61.0528 5 61.1629 5.02519C61.2605 5.04752 61.3542 5.08439 61.4409 5.13457C61.5386 5.19115 61.6238 5.27042 61.7941 5.42897L69.7422 12.829C70.1794 13.2359 70.3979 13.4394 70.479 13.6774C70.5503 13.8866 70.5503 14.1134 70.479 14.3226C70.3979 14.5606 70.1794 14.7641 69.7422 15.171L61.7941 22.571C61.6238 22.7296 61.5386 22.8088 61.4409 22.8654C61.3542 22.9156 61.2605 22.9525 61.1629 22.9748C61.0528 23 60.9365 23 60.7038 23H14.6C14.0399 23 13.7599 23 13.546 22.891C13.3578 22.7951 13.2049 22.6422 13.109 22.454C13 22.2401 13 21.9601 13 21.4V6.6Z" fill="#222222"/>
</svg>
