<svg width="92" height="92" viewBox="0 0 92 92" fill="none" xmlns="http://www.w3.org/2000/svg">
<path d="M52.5316 15.7493C48.7908 11.8859 42.5947 11.8858 38.8539 15.7492L20.5826 34.6194C19.5332 35.7031 18.8281 37.0732 18.556 38.557C16.337 50.6578 16.1732 63.0461 18.0715 75.2015L18.7436 79.505C18.9558 80.8643 20.1266 81.8664 21.5023 81.8664H34.2695C35.321 81.8664 36.1734 81.014 36.1734 79.9625V53.3083H55.2121V79.9625C55.2121 81.014 56.0645 81.8664 57.116 81.8664H69.883C71.2587 81.8664 72.4295 80.8643 72.6418 79.505L73.3138 75.2015C75.2121 63.0462 75.0483 50.6578 72.8293 38.5569C72.5572 37.0732 71.8521 35.7031 70.8028 34.6194L52.5316 15.7493Z" fill="black"/>
</svg>
