<svg width="32" height="32" viewBox="0 0 32 32" fill="none" xmlns="http://www.w3.org/2000/svg">
<path d="M9.63379 22C9.0815 22 8.63379 22.4477 8.63379 23C8.63379 23.5523 9.0815 24 9.63379 24H14.181C14.7333 24 15.181 23.5523 15.181 23C15.181 22.4477 14.7333 22 14.181 22H9.63379Z" fill="#242729"/>
<path d="M8.63379 18C8.63379 17.4477 9.0815 17 9.63379 17L18.7282 17C19.2805 17 19.7282 17.4477 19.7282 18C19.7282 18.5523 19.2805 19 18.7282 19L9.63379 19C9.0815 19 8.63379 18.5523 8.63379 18Z" fill="#242729"/>
<path fill-rule="evenodd" clip-rule="evenodd" d="M4 6.8C4 5.11984 4 4.27976 4.32698 3.63803C4.6146 3.07354 5.07354 2.6146 5.63803 2.32698C6.27976 2 7.11984 2 8.8 2H16.967C17.6656 2 18.0149 2 18.3454 2.07567C18.6384 2.14277 18.9198 2.25355 19.1799 2.40429C19.4733 2.57428 19.7288 2.81242 20.2398 3.28872L26.4727 9.09824C27.0355 9.62281 27.3169 9.88509 27.5186 10.1967C27.6973 10.4728 27.8294 10.7765 27.9096 11.0956C28 11.4555 28 11.8402 28 12.6095V25.2C28 26.8802 28 27.7202 27.673 28.362C27.3854 28.9265 26.9265 29.3854 26.362 29.673C25.7202 30 24.8802 30 23.2 30H8.8C7.11984 30 6.27976 30 5.63803 29.673C5.07354 29.3854 4.6146 28.9265 4.32698 28.362C4 27.7202 4 26.8802 4 25.2V6.8ZM26 12.6095V25.2C26 26.0731 25.9984 26.6076 25.9658 27.0075C25.9505 27.1938 25.9314 27.3065 25.9153 27.375C25.9076 27.4076 25.9012 27.4276 25.8973 27.4384C25.8936 27.4488 25.891 27.454 25.891 27.454C25.7951 27.6422 25.6422 27.7951 25.454 27.891C25.454 27.891 25.4488 27.8936 25.4384 27.8973C25.4276 27.9012 25.4076 27.9076 25.375 27.9153C25.3065 27.9314 25.1938 27.9505 25.0075 27.9658C24.6076 27.9984 24.0731 28 23.2 28H8.8C7.92692 28 7.39239 27.9984 6.99247 27.9658C6.80617 27.9505 6.69345 27.9314 6.625 27.9153C6.59244 27.9076 6.57241 27.9012 6.56158 27.8973C6.55118 27.8936 6.54601 27.891 6.54601 27.891C6.35785 27.7951 6.20487 27.6422 6.10899 27.454C6.10899 27.454 6.10636 27.4488 6.10265 27.4384C6.09879 27.4276 6.09236 27.4076 6.08469 27.375C6.06857 27.3065 6.04945 27.1938 6.03423 27.0075C6.00156 26.6076 6 26.0731 6 25.2V6.8C6 5.92692 6.00156 5.39239 6.03423 4.99247C6.04945 4.80617 6.06857 4.69345 6.08469 4.625C6.09236 4.59244 6.09879 4.57241 6.10265 4.56158C6.10636 4.55118 6.10899 4.54601 6.10899 4.54601C6.20487 4.35785 6.35785 4.20487 6.54601 4.10899C6.54601 4.10899 6.55118 4.10636 6.56158 4.10265C6.57241 4.09879 6.59244 4.09236 6.625 4.08469C6.69345 4.06857 6.80617 4.04945 6.99247 4.03423C7.39239 4.00156 7.92692 4 8.8 4H16.9097V8C16.9097 10.2091 18.7005 12 20.9097 12H25.9963C25.9986 12.1428 26 12.3384 26 12.6095ZM24.5069 10H20.9097C19.8051 10 18.9097 9.10457 18.9097 8V4.783L24.5069 10Z" fill="#242729"/>
</svg>
