<svg width="32" height="32" viewBox="0 0 32 32" fill="none" xmlns="http://www.w3.org/2000/svg">
<path fill-rule="evenodd" clip-rule="evenodd" d="M12.5 5.90261V7.29898C11.2915 7.47491 10.3633 8.51544 10.3633 9.77278V13.1363C10.3633 14.5171 11.4826 15.6363 12.8633 15.6363H19.136C20.5167 15.6363 21.636 14.5171 21.636 13.1363V9.77374C21.636 8.51668 20.7082 7.47629 19.5 7.30005V5.90261C19.5 3.894 17.7939 2.5 16 2.5C14.2061 2.5 12.5 3.894 12.5 5.90261ZM16 4.5C15.1661 4.5 14.5 5.13782 14.5 5.90261V7.27303L17.5 7.27349V5.90261C17.5 5.13782 16.8339 4.5 16 4.5ZM19.636 13.1363V9.77374C19.636 9.49763 19.4122 9.27379 19.1361 9.27374L12.8634 9.27278C12.5872 9.27274 12.3633 9.49661 12.3633 9.77278V13.1363C12.3633 13.4125 12.5871 13.6363 12.8633 13.6363H19.136C19.4122 13.6363 19.636 13.4125 19.636 13.1363Z" fill="#242729"/>
<path d="M8.70711 21.7072C9.09763 21.3167 9.09763 20.6835 8.70711 20.293C8.31658 19.9025 7.68342 19.9025 7.29289 20.293L6.50006 21.0858L5.70715 20.2929C5.31662 19.9024 4.68346 19.9024 4.29293 20.2929C3.90241 20.6835 3.90241 21.3166 4.29293 21.7071L5.08585 22.5001L4.29293 23.293C3.90241 23.6835 3.90241 24.3167 4.29293 24.7072C4.68346 25.0977 5.31662 25.0977 5.70714 24.7072L6.50006 23.9143L7.29289 24.7071C7.68342 25.0976 8.31658 25.0976 8.70711 24.7071C9.09763 24.3166 9.09763 23.6834 8.70711 23.2929L7.91428 22.5001L8.70711 21.7072Z" fill="#242729"/>
<path d="M4.5 28C3.94772 28 3.5 28.4477 3.5 29C3.5 29.5523 3.94772 30 4.5 30H8.5C9.05228 30 9.5 29.5523 9.5 29C9.5 28.4477 9.05228 28 8.5 28H4.5Z" fill="#242729"/>
<path d="M18.2071 20.293C18.5976 20.6835 18.5976 21.3167 18.2071 21.7072L17.4143 22.5001L18.2071 23.2929C18.5976 23.6834 18.5976 24.3166 18.2071 24.7071C17.8166 25.0976 17.1834 25.0976 16.7929 24.7071L16.0001 23.9143L15.2071 24.7072C14.8166 25.0977 14.1835 25.0977 13.7929 24.7072C13.4024 24.3167 13.4024 23.6835 13.7929 23.293L14.5858 22.5001L13.7929 21.7071C13.4024 21.3166 13.4024 20.6835 13.7929 20.2929C14.1835 19.9024 14.8166 19.9024 15.2071 20.2929L16.0001 21.0858L16.7929 20.293C17.1834 19.9025 17.8166 19.9025 18.2071 20.293Z" fill="#242729"/>
<path d="M13 29C13 28.4477 13.4477 28 14 28H18C18.5523 28 19 28.4477 19 29C19 29.5523 18.5523 30 18 30H14C13.4477 30 13 29.5523 13 29Z" fill="#242729"/>
<path d="M27.2071 21.7072C27.5976 21.3167 27.5976 20.6835 27.2071 20.293C26.8166 19.9025 26.1834 19.9025 25.7929 20.293L25.0001 21.0858L24.2071 20.2929C23.8166 19.9024 23.1835 19.9024 22.7929 20.2929C22.4024 20.6835 22.4024 21.3166 22.7929 21.7071L23.5858 22.5001L22.7929 23.293C22.4024 23.6835 22.4024 24.3167 22.7929 24.7072C23.1835 25.0977 23.8166 25.0977 24.2071 24.7072L25.0001 23.9143L25.7929 24.7071C26.1834 25.0976 26.8166 25.0976 27.2071 24.7071C27.5976 24.3166 27.5976 23.6834 27.2071 23.2929L26.4143 22.5001L27.2071 21.7072Z" fill="#242729"/>
<path d="M23 28C22.4477 28 22 28.4477 22 29C22 29.5523 22.4477 30 23 30H27C27.5523 30 28 29.5523 28 29C28 28.4477 27.5523 28 27 28H23Z" fill="#242729"/>
</svg>
