<svg width="32" height="32" viewBox="0 0 32 32" fill="none" xmlns="http://www.w3.org/2000/svg">
<path d="M14.2318 2.35984C14.5853 1.93556 15.2159 1.87824 15.6402 2.2318L19.2402 5.2318C19.4682 5.4218 19.6 5.70325 19.6 6.00003C19.6 6.2968 19.4682 6.57825 19.2402 6.76825L15.6402 9.76825C15.2159 10.1218 14.5853 10.0645 14.2318 9.64021C13.8782 9.21593 13.9355 8.58537 14.3598 8.2318L15.8379 7.00003H6.2C5.62345 7.00003 5.25117 7.0008 4.96784 7.02395C4.69617 7.04615 4.59545 7.08383 4.54601 7.10902C4.35785 7.20489 4.20487 7.35787 4.109 7.54604C4.0838 7.59548 4.04613 7.6962 4.02393 7.96786C4.00078 8.2512 4 8.62347 4 9.20003L4 12H27.9749V8.00002C27.9749 7.44774 27.5272 7.00002 26.9749 7.00002H23.9999C23.4476 7.00002 22.9999 6.55231 22.9999 6.00002C22.9999 5.44774 23.4476 5.00002 23.9999 5.00002H26.9749C28.6318 5.00002 29.9749 6.34317 29.9749 8.00002L29.9749 22.8386C29.9749 23.3657 29.9749 23.8205 29.9443 24.1951C29.912 24.5904 29.8407 24.9836 29.6479 25.362C29.3603 25.9265 28.9014 26.3854 28.3369 26.673C27.9585 26.8658 27.5653 26.9372 27.1699 26.9695C26.7954 27.0001 26.3406 27 25.8135 27H16.7619L18.2401 28.2318C18.6644 28.5854 18.7217 29.2159 18.3681 29.6402C18.0145 30.0645 17.384 30.1218 16.9597 29.7682L13.3597 26.7682C13.1317 26.5783 12.9999 26.2968 12.9999 26C12.9999 25.7032 13.1317 25.4218 13.3597 25.2318L16.9597 22.2318C17.384 21.8782 18.0145 21.9356 18.3681 22.3598C18.7217 22.7841 18.6644 23.4147 18.2401 23.7682L16.7619 25H25.7749C26.3515 25 26.7237 24.9992 27.0071 24.9761C27.2787 24.9539 27.3795 24.9162 27.4289 24.891C27.6171 24.7952 27.77 24.6422 27.8659 24.454C27.8911 24.4046 27.9288 24.3039 27.951 24.0322C27.9741 23.7488 27.9749 23.3766 27.9749 22.8V14H4V24C4 24.5523 4.44772 25 5 25H8C8.55229 25 9 25.4477 9 26C9 26.5523 8.55229 27 8 27H5C3.34315 27 2 25.6569 2 24V9.16148C1.99998 8.63433 1.99997 8.17957 2.03057 7.805C2.06287 7.40965 2.13419 7.01643 2.32698 6.63805C2.6146 6.07357 3.07354 5.61463 3.63803 5.32701C4.01641 5.13421 4.40963 5.0629 4.80497 5.0306C5.17954 4.99999 5.63429 5.00001 6.16142 5.00002L15.8379 5.00003L14.3598 3.76825C13.9355 3.41468 13.8782 2.78412 14.2318 2.35984Z" fill="#242729"/>
</svg>
