<svg width="26" height="23" viewBox="0 0 26 23" fill="none" xmlns="http://www.w3.org/2000/svg">
<path d="M19.6667 22C19.6667 19.6804 16.6819 17.8 13 17.8C9.3181 17.8 6.33333 19.6804 6.33333 22M25 17.8005C25 16.0783 23.3545 14.5981 21 13.95M1 17.8005C1 16.0783 2.64546 14.5981 5 13.95M21 8.33055C21.8183 7.5615 22.3333 6.4439 22.3333 5.2C22.3333 2.8804 20.5425 1 18.3333 1C17.3089 1 16.3743 1.40439 15.6667 2.06945M5 8.33055C4.18167 7.5615 3.66667 6.4439 3.66667 5.2C3.66667 2.8804 5.45753 1 7.66667 1C8.69114 1 9.62566 1.40439 10.3333 2.06945M13 13.6C10.7909 13.6 9 11.7196 9 9.4C9 7.0804 10.7909 5.2 13 5.2C15.2091 5.2 17 7.0804 17 9.4C17 11.7196 15.2091 13.6 13 13.6Z" stroke="white" stroke-width="2" stroke-linecap="round" stroke-linejoin="round"/>
</svg>
