<svg width="68" height="67" viewBox="0 0 68 67" fill="none" xmlns="http://www.w3.org/2000/svg">
<rect x="1" y="1" width="66" height="65" rx="32.5" fill="#F6F3ED"/>
<rect x="1" y="1" width="66" height="65" rx="32.5" stroke="black" stroke-width="2"/>
<path fill-rule="evenodd" clip-rule="evenodd" d="M42.0897 24.4588C42.0897 28.8543 38.4678 32.4176 34 32.4176C29.5322 32.4176 25.9103 28.8543 25.9103 24.4588C25.9103 20.0633 29.5322 16.5 34 16.5C38.4678 16.5 42.0897 20.0633 42.0897 24.4588ZM39.3931 24.4588C39.3931 27.3891 36.9785 29.7646 34 29.7646C31.0215 29.7646 28.6069 27.3891 28.6069 24.4588C28.6069 21.5284 31.0215 19.1529 34 19.1529C36.9785 19.1529 39.3931 21.5284 39.3931 24.4588Z" fill="black"/>
<path d="M34 36.3969C25.2707 36.3969 17.8332 41.4752 15 48.5899C15.6902 49.2641 16.4172 49.9019 17.1779 50.5C19.2876 43.968 25.9059 39.0499 34 39.0499C42.0941 39.0499 48.7124 43.968 50.8221 50.5C51.5828 49.9019 52.3098 49.2641 53 48.5899C50.1668 41.4752 42.7293 36.3969 34 36.3969Z" fill="black"/>
</svg>
