<svg width="38" height="34" viewBox="0 0 38 34" fill="none" xmlns="http://www.w3.org/2000/svg">
<path fill-rule="evenodd" clip-rule="evenodd" d="M27.0897 7.95878C27.0897 12.3543 23.4678 15.9176 19 15.9176C14.5322 15.9176 10.9103 12.3543 10.9103 7.95878C10.9103 3.56327 14.5322 0 19 0C23.4678 0 27.0897 3.56327 27.0897 7.95878ZM24.3931 7.95878C24.3931 10.8891 21.9785 13.2646 19 13.2646C16.0215 13.2646 13.6069 10.8891 13.6069 7.95878C13.6069 5.02844 16.0215 2.65293 19 2.65293C21.9785 2.65293 24.3931 5.02844 24.3931 7.95878Z" fill="black"/>
<path d="M19 19.8969C10.2707 19.8969 2.83316 24.9752 0 32.0899C0.690177 32.7641 1.41723 33.4019 2.17791 34C4.28762 27.468 10.9059 22.5499 19 22.5499C27.0941 22.5499 33.7124 27.468 35.8221 34C36.5828 33.4019 37.3098 32.7641 38 32.0899C35.1668 24.9752 27.7293 19.8969 19 19.8969Z" fill="black"/>
</svg>
