<svg width="32" height="32" viewBox="0 0 32 32" fill="none" xmlns="http://www.w3.org/2000/svg">
<path fill-rule="evenodd" clip-rule="evenodd" d="M10 4.91699C8.34315 4.91699 7 6.26014 7 7.91699V11.5862L2.29289 16.2933C1.90237 16.6838 1.90237 17.3169 2.29289 17.7075C2.68342 18.098 3.31658 18.098 3.70711 17.7075L7 14.4146V21.0004C7 21.5527 7.44772 22.0004 8 22.0004H9.23676C9.90456 22.0004 10.5617 21.8332 11.1483 21.514L16.3701 18.6732C16.8336 18.421 17.4129 18.5617 17.7091 18.9985C17.9905 19.4134 17.9307 19.9711 17.5676 20.3169L12.1793 25.4486C11.8074 25.8028 11.3135 26.0004 10.8 26.0004H2C1.44772 26.0004 1 26.4481 1 27.0004C1 27.5527 1.44772 28.0004 2 28.0004H10.8C11.8271 28.0004 12.8149 27.6053 13.5586 26.8969L18.9469 21.7652C20.018 20.745 20.1946 19.1 19.3643 17.8758C18.4905 16.5875 16.7817 16.1724 15.4143 16.9164L10.1925 19.7572C9.89925 19.9168 9.57066 20.0004 9.23676 20.0004H9V12.917L28 12.917V19.0004C28 19.5527 27.5523 20.0004 27 20.0004H23C22.4477 20.0004 22 20.4481 22 21.0004C22 21.5527 22.4477 22.0004 23 22.0004H27C28.6569 22.0004 30 20.6572 30 19.0004V7.91699C30 6.26014 28.6569 4.91699 27 4.91699H10ZM28 10.917V7.91699C28 7.36471 27.5523 6.91699 27 6.91699H10C9.44771 6.91699 9 7.36471 9 7.91699V10.917L28 10.917Z" fill="#242729"/>
</svg>
